<svg width="156" height="76" viewBox="0 0 156 76" fill="none" xmlns="http://www.w3.org/2000/svg">
<path d="M39.5657 70.6903C49.9072 70.6903 53.9284 69.6521 55.7673 65.9655C56.9172 63.8924 57.1471 62.2789 57.491 60.5531C57.7208 59.6304 57.9507 58.9395 58.4104 58.9395C59.1007 58.9395 59.2146 59.5148 59.2146 60.666C59.2146 63.8924 57.8355 70.2274 57.1471 72.6478C56.3416 75.2989 56.2271 75.4118 53.6985 75.4118C36.8079 75.4118 20.4906 74.9521 2.4495 74.9521C1.18554 74.9521 0.611816 74.8365 0.611816 74.1456C0.611816 73.5698 0.841695 73.1075 1.99097 71.3811C17.0433 49.1465 31.7516 27.9495 45.6562 5.59935H24.6275C18.423 5.59935 12.9068 5.59935 9.34537 6.86556C5.78225 8.13484 4.86274 12.7408 4.28902 15.5079C3.94445 17.0059 3.59877 17.35 3.13914 17.35C2.67938 17.35 2.5653 16.7741 2.5653 15.9678C2.5653 14.701 4.05853 5.48323 4.5189 2.48801C4.74878 0.990177 4.97866 0.530472 5.66817 0.530472C6.70226 0.530472 7.2761 1.10578 10.2637 1.22137C21.1802 1.56858 26.2353 1.56858 27.6146 1.56858H55.652C57.1471 1.56858 57.9507 1.56858 57.9507 2.25948C57.9507 2.71919 57.7208 3.2945 57.1471 4.10153C41.979 27.0275 28.1889 48.3395 12.9068 70.6903H39.5657Z" fill="#BDBDBD"/>
<path d="M53.6981 75.9431C45.3883 75.9431 37.3855 75.8343 28.9134 75.7182C20.4083 75.6031 11.6144 75.4829 2.44906 75.4829C1.53322 75.4829 0 75.4829 0 74.1456C0 73.4149 0.311681 72.8427 1.46217 71.1168C4.26107 66.9818 7.04578 62.8863 9.81606 58.8125C21.9738 40.9315 33.4676 24.029 44.6301 6.13036H24.6271C18.4023 6.13036 13.0264 6.13036 9.57726 7.35666C6.36275 8.50208 5.45338 12.8909 4.9095 15.5125C4.62472 16.7605 4.27305 17.881 3.13931 17.881C1.95409 17.881 1.95409 16.4909 1.95409 15.9675C1.95409 14.9868 2.74705 9.85268 3.56018 4.67913L3.91246 2.41726C4.08621 1.28437 4.2832 0 5.66834 0C6.16038 0 6.55558 0.103705 7.0135 0.222907C7.65838 0.392835 8.54256 0.624032 10.2907 0.69239C17.5223 0.92156 23.353 1.03758 27.6148 1.03758H55.6517C57.2135 1.03758 58.5628 1.03758 58.5628 2.25974C58.5628 2.84853 58.278 3.5233 57.6673 4.38065C53.4121 10.8126 49.2554 17.1315 45.1447 23.3811C34.6641 39.3165 24.7543 54.3833 13.9799 70.1601H39.5653C49.868 70.1601 53.5231 69.1307 55.2062 65.7555C56.2134 63.9384 56.4917 62.5017 56.7872 60.9811L56.8887 60.4628C57.1197 59.5361 57.4009 58.4093 58.4112 58.4093C59.8262 58.4093 59.8262 59.7672 59.8262 60.6659C59.8262 63.8483 58.4888 70.1445 57.7401 72.7753C56.8869 75.5866 56.6069 75.9431 53.6981 75.9431ZM24.6271 5.0689H46.6815L46.1937 5.85151C34.8677 24.058 23.2109 41.2021 10.8692 59.3526C8.09955 63.4253 5.31435 67.5198 2.51888 71.6507C1.39345 73.3402 1.22276 73.7197 1.22276 74.1456C1.22276 74.3053 1.22276 74.4214 2.44906 74.4214C11.6239 74.4214 20.4233 74.5417 28.933 74.6578C37.3998 74.7729 45.3979 74.8817 53.6981 74.8817C55.8367 74.8817 55.8367 74.8817 56.5561 72.512C57.2893 69.935 58.6034 63.7622 58.6034 60.6659C58.6034 59.8979 58.5354 59.6128 58.4804 59.5081C58.37 59.676 58.2386 60.0647 58.0894 60.6649L57.9932 61.1573C57.6971 62.6842 57.3908 64.2629 56.3186 66.1962C54.4002 70.0429 50.4836 71.2215 39.5653 71.2215H11.8329L12.3804 70.4202C23.3631 54.3583 33.4277 39.0563 44.0831 22.8556C48.195 16.604 52.3517 10.285 56.617 3.83739C57.1066 3.14914 57.34 2.63805 57.34 2.25974C57.1872 2.09904 56.3358 2.09904 55.6517 2.09904H27.6148C23.3381 2.09904 17.4929 1.98302 10.2412 1.7529C8.33542 1.67826 7.367 1.42427 6.65951 1.23979C6.2505 1.13194 5.98002 1.06146 5.66834 1.06146C5.54301 1.06146 5.35434 1.06146 5.12446 2.55833L4.77157 4.82221C4.17511 8.62021 3.17685 14.9766 3.17685 15.9675C3.17685 16.3541 3.20668 16.5822 3.23713 16.7149C3.33691 16.5656 3.50345 16.2142 3.68918 15.4047C4.29335 12.4887 5.27792 7.74123 9.11334 6.37396C12.787 5.0689 18.2739 5.0689 24.6271 5.0689Z" fill="#BDBDBD"/>
<path d="M105.306 28.4018C105.306 12.9577 105.306 11.1018 105.076 7.96632C104.961 4.13446 103.582 3.09148 101.169 2.51169C100.02 2.27816 99.561 2.27816 98.6416 2.16167C97.9514 2.16167 96.9179 1.92869 96.9179 1.3489C96.9179 1.00209 97.6075 0.652184 98.9855 0.652184C101.515 0.652184 108.983 1.00209 109.557 1.00209C110.592 1.00209 117.831 0.652184 120.588 0.652184C121.737 0.652184 122.082 0.885586 122.082 1.3489C122.082 1.81219 121.623 2.04517 120.934 2.16167C120.358 2.27816 120.128 2.27816 118.864 2.51169C115.993 3.20786 114.958 4.01807 114.728 8.19929C114.499 11.3348 114.499 12.9577 114.499 28.4018V42.913C121.737 42.0998 128.748 39.8941 131.849 22.594C133.343 14.8172 134.836 8.89601 137.48 5.64405C139.663 2.97498 142.88 0.53569 150.234 0.53569C151.27 0.53569 152.188 0.53569 153.567 0.768676C154.371 0.885586 155.061 1.23197 155.061 1.69837C155.061 2.27816 154.601 2.39466 153.682 2.39466C147.477 2.62496 144.604 7.96632 141.502 22.7105C137.366 42.5662 124.035 45.6986 114.499 46.7449C114.499 60.5598 114.613 63.9283 114.843 67.4101C115.073 70.4292 115.877 72.868 118.98 73.2148C120.358 73.5642 122.082 73.5642 123.231 73.6812C124.035 73.7977 124.38 74.0276 124.38 74.494C124.38 74.9573 124.035 75.3067 122.542 75.3067C117.601 75.3067 110.017 74.9573 109.557 74.9573C108.753 74.9573 102.088 75.3067 99.2153 75.3067C97.6075 75.3067 97.3776 74.9573 97.3776 74.6078C97.3776 74.1445 97.6075 73.7977 98.6416 73.6812C99.561 73.5642 100.939 73.4478 101.858 73.2148C103.926 72.868 104.616 70.3127 104.961 67.1772C105.191 62.5353 105.306 58.3535 105.306 46.7449C95.768 45.4683 81.7498 43.146 77.4988 22.7105C74.51 8.43218 72.5565 2.62496 66.4678 2.51169C65.4325 2.39466 65.0879 2.16167 65.0879 1.81219C65.0879 1.23197 65.6623 1.00209 66.4678 0.885586C67.0415 0.768676 68.6493 0.652184 70.3742 0.652184C76.4636 0.652184 81.1755 2.04517 84.2771 7.96632C86.0009 11.2183 87.4947 19.8085 88.5299 24.9163C91.0572 37.8047 97.8373 41.6365 105.306 42.913V28.4018Z" fill="#BDBDBD"/>
<path d="M122.541 75.8411C118.742 75.8411 113.442 75.6373 110.896 75.5391C110.149 75.5099 109.662 75.4911 109.557 75.4911C109.282 75.4911 108.314 75.5329 107.047 75.5871C104.541 75.6947 101.11 75.8411 99.2153 75.8411C98.5453 75.8411 96.7656 75.8411 96.7656 74.6072C96.7656 73.3516 98.1191 73.2001 98.5633 73.1499L99.2845 73.0653C100.104 72.9724 101.033 72.8669 101.688 72.6997C103.15 72.4522 103.955 70.7369 104.353 67.1255C104.58 62.5185 104.691 58.3169 104.694 47.2028C95.7094 45.9931 81.2369 43.6688 76.897 22.8059C73.8126 8.06789 71.8703 3.1465 66.4545 3.0452C65.8665 2.9825 64.4771 2.82686 64.4771 1.81137C64.4771 1.02694 65.113 0.537966 66.3685 0.357289C67.0199 0.223573 68.7585 0.117028 70.3742 0.117028C75.8097 0.117028 81.3223 1.04042 84.8329 7.74301C86.3315 10.5698 87.6098 17.0896 88.6373 22.3275C88.8117 23.2175 88.9765 24.0595 89.1317 24.8231C91.6865 37.85 98.6612 41.0832 104.694 42.2543V28.4011C104.694 13.0853 104.694 11.1173 104.466 7.99996C104.36 4.46901 103.218 3.55706 101.007 3.02636C100.258 2.8749 99.8153 2.82783 99.3018 2.77456C99.0732 2.75059 98.8344 2.72546 98.5531 2.68994C98.5471 2.68994 98.5405 2.68994 98.5341 2.68994C97.4671 2.68994 96.3058 2.22718 96.3058 1.34764C96.3058 0.753185 97.0098 0.117029 98.986 0.117029C100.713 0.117029 104.66 0.275777 107.272 0.381252C108.481 0.42939 109.374 0.465868 109.557 0.465868C109.947 0.465868 111.225 0.415805 112.81 0.354081C115.365 0.253848 118.865 0.117029 120.588 0.117029C121.109 0.117029 122.692 0.117029 122.692 1.34764C122.692 1.83234 122.407 2.45706 121.048 2.68577C120.795 2.73808 120.594 2.76835 120.33 2.80804C120.038 2.85297 119.662 2.90934 118.99 3.03364C116.472 3.64585 115.558 4.2204 115.338 8.22461C115.111 11.3501 115.111 12.9641 115.111 28.4011V42.3003C121.979 41.429 128.305 38.9114 131.245 22.5113C132.817 14.3274 134.324 8.60169 136.981 5.33292C139.139 2.69518 142.4 0 150.234 0C151.269 0 152.246 2.80951e-08 153.684 0.2424C154.885 0.417836 155.672 0.989285 155.672 1.69755C155.672 2.92924 154.278 2.92924 153.682 2.92924C148.044 3.13815 145.225 7.96862 142.104 22.8069C138.118 41.9367 125.686 45.969 115.111 47.2143C115.112 60.1189 115.214 63.7532 115.453 67.3782C115.721 70.8883 116.766 72.427 119.058 72.683C120.064 72.9316 121.17 73.0017 122.146 73.0633C122.565 73.0894 122.958 73.1144 123.302 73.1489C123.741 73.2126 124.992 73.3923 124.992 74.4934C124.992 75.8411 123.147 75.8411 122.541 75.8411ZM109.557 74.4213C109.667 74.4213 110.174 74.4401 110.949 74.4704C113.487 74.5676 118.769 74.7713 122.541 74.7713C122.91 74.7713 123.769 74.7442 123.769 74.4934C123.769 74.4119 123.769 74.3001 123.131 74.2082C122.833 74.1789 122.458 74.155 122.057 74.1298C121.021 74.0651 119.848 73.991 118.81 73.7277C115.157 73.3255 114.439 70.1581 114.233 67.4451C113.99 63.7501 113.888 60.0583 113.888 46.7442V46.2719L114.423 46.2135C124.696 45.0864 136.989 41.384 140.901 22.6136C144.156 7.14022 147.255 2.09667 153.656 1.85951C154.285 1.85951 154.423 1.79886 154.452 1.78012C154.435 1.62438 154.112 1.38936 153.467 1.29533C152.129 1.06973 151.251 1.06973 150.234 1.06973C142.955 1.06973 139.953 3.5393 137.977 5.95454C135.456 9.05504 133.994 14.6544 132.452 22.6826C129.286 40.3426 121.885 42.6219 114.576 43.4431L113.888 43.5204V28.4011C113.888 12.9328 113.888 11.3168 114.118 8.16395C114.356 3.81401 115.527 2.76525 118.701 1.99526C119.432 1.85951 119.819 1.79993 120.12 1.75393C120.362 1.71841 120.543 1.69027 120.795 1.63904C121.013 1.60245 121.47 1.50841 121.47 1.34765C121.469 1.2933 121.325 1.18676 120.588 1.18676C118.892 1.18676 115.408 1.32251 112.864 1.42177C111.254 1.48553 109.954 1.5356 109.557 1.5356C109.369 1.5356 108.455 1.49912 107.216 1.45002C104.615 1.34444 100.684 1.18676 98.986 1.18676C98.1901 1.18676 97.7632 1.31106 97.5853 1.39878C97.7363 1.49495 98.1495 1.62545 98.6409 1.62545C98.9991 1.66514 99.2283 1.6892 99.447 1.71221C99.9729 1.76751 100.469 1.81982 101.306 1.98905C103.929 2.61891 105.564 3.83284 105.687 7.95193C105.917 11.0838 105.917 13.0551 105.917 28.4011V43.5621L105.188 43.4368C98.614 42.3139 90.7121 39.2029 87.9269 25.0069C87.7722 24.2444 87.6074 23.4003 87.4319 22.5082C86.4706 17.6056 85.1541 10.8915 83.7224 8.19005C80.678 2.37758 76.1846 1.18676 70.3742 1.18676C68.7113 1.18676 67.1232 1.30058 66.6056 1.40605C65.7178 1.53463 65.7004 1.71531 65.6998 1.80624C65.7023 1.77584 65.8909 1.90647 66.5447 1.97964C73.1152 2.09977 75.1165 8.35929 78.0994 22.6136C82.3677 43.1328 96.7847 45.0623 105.398 46.2156L105.917 46.2846V46.7442C105.917 58.2229 105.805 62.4861 105.573 67.1996C105.242 70.204 104.558 73.3056 101.974 73.7392C101.283 73.9167 100.305 74.0285 99.4421 74.1256L98.7292 74.2103C97.9883 74.2928 97.9883 74.4391 97.9883 74.6072C97.9746 74.6104 98.1746 74.7713 99.2153 74.7713C101.08 74.7713 104.635 74.6188 106.988 74.5184C108.284 74.4632 109.276 74.4213 109.557 74.4213Z" fill="#BDBDBD"/>
</svg>
