<?xml version="1.0" encoding="utf-8"?>
<svg width="260" height="59" viewBox="0 0 260 59" fill="none" xmlns="http://www.w3.org/2000/svg">
<path d="M123.792 40.8458C127.299 40.8458 128.369 40.2222 129.07 39.2378C129.371 38.8111 129.671 37.9247 129.738 37.465C129.804 37.1372 129.871 36.9403 130.038 36.9403C130.239 36.9403 130.306 37.0713 130.306 37.6948C130.306 38.7122 129.838 40.6489 129.637 41.4694C129.437 42.2577 129.404 42.3229 128.636 42.3229C123.058 42.3229 117.446 42.1589 111.601 42.1589C111.201 42.1589 111 42.126 111 41.8961C111 41.7322 111.067 41.5682 111.468 40.9776C116.445 33.5925 121.488 26.2073 126.131 18.7892H118.883C117.18 18.7892 115.142 18.888 114.073 19.4457C112.87 20.0693 112.27 21.2836 112.169 22.039C112.102 22.5308 111.969 22.6297 111.802 22.6297C111.635 22.6297 111.601 22.4657 111.601 22.2029C111.601 21.8092 112.102 18.8222 112.27 17.8377C112.336 17.3781 112.403 17.2141 112.603 17.2141C112.904 17.2141 113.104 17.411 114.006 17.444C117.18 17.575 118.782 17.542 119.818 17.542H129.137C129.637 17.542 129.804 17.6079 129.804 17.8048C129.804 17.9358 129.804 18.0016 129.671 18.1985C124.828 25.7476 119.784 33.2967 114.707 40.8458H123.792Z" fill="#FFB300"/>
<path d="M137.623 26.9776C137.623 21.8578 137.623 20.9384 137.557 19.8881C137.491 18.772 137.223 18.2472 136.121 18.0173C135.887 17.9515 135.453 17.9515 135.152 17.9185C134.918 17.8864 134.718 17.8534 134.718 17.7216C134.718 17.5247 134.885 17.4597 135.252 17.4597C136.02 17.4597 136.923 17.4597 139.026 17.5577C139.26 17.5577 145.907 17.5577 146.675 17.5247C147.41 17.4926 148.011 17.4267 148.212 17.3278C148.412 17.2298 148.479 17.1969 148.579 17.1969C148.679 17.1969 148.712 17.3278 148.712 17.4926C148.712 17.7216 148.512 18.1162 148.445 19.0347C148.412 19.5274 148.379 20.1509 148.312 21.0043C148.278 21.3322 148.179 21.5621 148.045 21.5621C147.844 21.5621 147.778 21.3981 147.778 21.1353C147.778 20.7087 147.71 20.3149 147.611 20.052C147.377 19.2975 146.675 18.9688 145.206 18.8378C144.638 18.772 140.997 18.7398 140.63 18.7398C140.497 18.7398 140.429 18.8378 140.429 19.0676V28.1267C140.429 28.3566 140.463 28.4546 140.63 28.4546C141.064 28.4546 145.172 28.4546 145.941 28.3895C146.842 28.3236 147.276 28.2247 147.611 27.831C147.778 27.6341 147.877 27.5031 148.011 27.5031C148.111 27.5031 148.179 27.5691 148.179 27.7659C148.179 27.9628 148.011 28.5205 147.911 29.6038C147.811 30.6211 147.811 31.3757 147.778 31.8354C147.744 32.164 147.677 32.328 147.544 32.328C147.344 32.328 147.309 32.0652 147.309 31.8024C147.309 31.5075 147.276 31.1788 147.177 30.8839C147.043 30.3913 146.642 29.9317 145.439 29.8007C144.538 29.7018 141.231 29.6367 140.663 29.6367C140.497 29.6367 140.429 29.7348 140.429 29.8665V32.7547C140.429 33.8709 140.396 37.6776 140.429 38.3671C140.497 39.7132 140.697 40.4347 141.532 40.7635C142.099 40.9932 143.001 41.0584 144.304 41.0584C145.306 41.0584 146.408 41.0254 147.309 40.7635C148.379 40.4347 148.746 39.7461 149.013 38.3341C149.08 37.9734 149.147 37.8423 149.314 37.8423C149.514 37.8423 149.514 38.1043 149.514 38.3341C149.514 38.5969 149.247 40.8285 149.08 41.518C148.846 42.3714 148.579 42.3714 147.276 42.3714C144.805 42.3714 143.703 42.3055 142.4 42.2734C141.064 42.2405 139.528 42.1746 138.225 42.1746C137.423 42.1746 136.621 42.3055 135.753 42.2734C135.386 42.2734 135.219 42.2075 135.219 42.0106C135.219 41.9118 135.386 41.8468 135.587 41.8138C135.92 41.7808 136.121 41.7808 136.355 41.7149C137.056 41.551 137.491 41.0913 137.557 38.6299C137.59 37.3497 137.623 35.6758 137.623 32.7547V26.9776Z" fill="#FFB300"/>
<path d="M165.115 32.7548C165.115 35.9058 165.115 38.499 165.282 39.8772C165.382 40.8286 165.582 41.5511 166.584 41.682C167.052 41.748 167.787 41.8139 168.088 41.8139C168.288 41.8139 168.355 41.9119 168.355 42.0108C168.355 42.1747 168.187 42.2735 167.82 42.2735C165.983 42.2735 163.879 42.1747 163.712 42.1747C163.545 42.1747 161.441 42.2735 160.439 42.2735C160.072 42.2735 159.904 42.2077 159.904 42.0108C159.904 41.9119 159.971 41.8139 160.172 41.8139C160.472 41.8139 160.873 41.748 161.174 41.682C161.842 41.5511 162.009 40.8286 162.142 39.8772C162.309 38.499 162.309 35.9058 162.309 32.7548V18.8709C160.673 18.9038 159.003 18.9038 157.366 18.9368C155.295 18.969 154.493 19.1988 153.96 19.9871C153.592 20.5448 153.491 20.7747 153.392 21.0044C153.291 21.2673 153.191 21.3323 153.057 21.3323C152.958 21.3323 152.89 21.2343 152.89 21.0374C152.89 20.7088 153.559 17.8865 153.625 17.6237C153.692 17.4268 153.826 17.0001 153.96 17.0001C154.193 17.0001 154.527 17.3279 155.429 17.3939C156.398 17.4928 157.667 17.5578 158.067 17.5578H170.592C171.662 17.5578 172.429 17.4928 172.964 17.3939C173.465 17.3279 173.766 17.2299 173.9 17.2299C174.066 17.2299 174.066 17.4268 174.066 17.6237C174.066 18.6081 173.966 20.8727 173.966 21.2343C173.966 21.5292 173.866 21.6611 173.732 21.6611C173.565 21.6611 173.499 21.5622 173.465 21.1026C173.465 20.9715 173.431 20.8727 173.431 20.7417C173.332 19.7573 172.53 19.0019 169.323 18.9368C167.921 18.9038 166.518 18.9038 165.115 18.8709V32.7548Z" fill="#FFB300"/>
<path d="M181.118 32.5909C180.951 32.5909 180.85 32.6889 180.783 32.8528L178.779 38.6629C178.479 39.4834 178.312 40.271 178.312 40.8616C178.312 41.5182 178.947 41.8139 179.515 41.8139C179.614 41.8139 179.715 41.8139 179.815 41.8139C180.149 41.8139 180.249 41.8789 180.249 42.0108C180.249 42.2077 179.949 42.2735 179.648 42.2735C178.847 42.2735 177.51 42.1747 177.143 42.1747C176.775 42.1747 174.938 42.2735 173.368 42.2735C172.934 42.2735 172.734 42.2077 172.734 42.0108C172.734 41.8789 172.901 41.8139 173.202 41.8139C173.436 41.8139 173.736 41.7809 174.003 41.748C175.54 41.5511 176.208 40.3039 176.809 38.6629L184.391 18.2803C184.792 17.197 184.925 17.0001 185.126 17.0001C185.326 17.0001 185.459 17.164 185.86 18.1814C186.362 19.4286 191.605 32.9847 193.643 37.9735C194.845 40.8945 195.814 41.4201 196.515 41.617C197.016 41.7809 197.55 41.8139 197.818 41.8139C198.018 41.8139 198.186 41.8469 198.186 42.0108C198.186 42.2077 197.884 42.2735 197.517 42.2735C197.016 42.2735 194.578 42.2735 192.273 42.2077C191.639 42.1747 191.271 42.1747 191.271 41.9778C191.271 41.8469 191.372 41.7809 191.505 41.748C191.705 41.682 191.905 41.3871 191.705 40.8616L188.599 32.7878C188.533 32.6559 188.465 32.5909 188.298 32.5909H181.118ZM187.864 31.4087C188.031 31.4087 188.031 31.3107 187.998 31.179L184.825 22.3176C184.658 21.825 184.491 21.825 184.324 22.3176L181.385 31.179C181.318 31.3437 181.385 31.4087 181.485 31.4087H187.864Z" fill="#FFB300"/>
<path d="M213.822 26.9777C213.822 21.858 213.822 20.9386 213.756 19.8883C213.688 18.7721 213.421 18.2474 212.319 18.0175C212.052 17.9516 211.484 17.9186 211.183 17.9186C211.05 17.9186 210.917 17.8536 210.917 17.7218C210.917 17.5249 211.083 17.4598 211.45 17.4598C212.954 17.4598 214.958 17.5579 215.225 17.5579C215.96 17.5579 217.897 17.4598 219.433 17.4598C223.609 17.4598 225.111 18.838 225.646 19.3307C226.38 20.0193 227.316 21.4964 227.316 23.63C227.316 27.897 223.842 31.048 219.099 31.048C218.932 31.048 218.565 31.048 218.398 31.015C218.231 31.015 218.031 30.9492 218.031 30.7853C218.031 30.5224 218.231 30.4904 218.932 30.4904C222.172 30.4904 224.71 28.3238 224.71 24.8771C224.71 24.0566 224.611 21.858 222.84 20.0852C221.07 18.3133 219.033 18.4443 218.264 18.4443C217.696 18.4443 217.128 18.5101 216.828 18.6411C216.628 18.707 216.561 18.9369 216.561 19.2647V32.7549C216.561 35.9058 216.561 38.4991 216.728 39.8773C216.828 40.8287 217.028 41.5512 218.031 41.6821C218.498 41.7481 219.233 41.814 219.533 41.814C219.733 41.814 219.801 41.912 219.801 42.0108C219.801 42.1747 219.634 42.2736 219.266 42.2736C217.429 42.2736 215.325 42.1747 215.158 42.1747C215.058 42.1747 212.954 42.2736 211.952 42.2736C211.584 42.2736 211.417 42.2077 211.417 42.0108C211.417 41.912 211.484 41.814 211.684 41.814C211.985 41.814 212.386 41.7481 212.686 41.6821C213.355 41.5512 213.522 40.8287 213.655 39.8773C213.822 38.4991 213.822 35.9058 213.822 32.7549V26.9777Z" fill="#FFB300"/>
<path d="M233.131 41.8469C232.664 41.617 232.63 41.4852 232.63 40.5996C232.63 38.9578 232.764 37.6456 232.798 37.12C232.831 36.7592 232.897 36.5953 233.065 36.5953C233.265 36.5953 233.298 36.6933 233.298 36.9561C233.298 37.251 233.298 37.7106 233.399 38.1704C233.899 40.5996 236.104 41.5181 238.342 41.5181C241.548 41.5181 243.118 39.2536 243.118 37.153C243.118 34.8884 242.149 33.5753 239.277 31.2448L237.774 30.0306C234.234 27.1746 233.432 25.1398 233.432 22.9082C233.432 19.3956 236.104 17.0001 240.346 17.0001C241.649 17.0001 242.617 17.131 243.452 17.3279C244.087 17.4598 244.354 17.4928 244.621 17.4928C244.888 17.4928 244.955 17.5578 244.955 17.7217C244.955 17.8865 244.821 18.969 244.821 21.2013C244.821 21.7261 244.755 21.956 244.587 21.956C244.387 21.956 244.354 21.792 244.32 21.5292C244.287 21.1354 244.087 20.249 243.886 19.8883C243.686 19.5275 242.784 18.1484 239.711 18.1484C237.406 18.1484 235.603 19.5604 235.603 21.956C235.603 23.8267 236.471 25.0088 239.678 27.4703L240.612 28.1927C244.554 31.2448 245.49 33.2796 245.49 35.9058C245.49 37.251 244.955 39.7462 242.651 41.3542C241.214 42.3387 239.41 42.7324 237.607 42.7324C236.037 42.7324 234.501 42.5026 233.131 41.8469Z" fill="#FFB300"/>
<path d="M253.742 26.9777C253.742 21.858 253.742 20.9386 253.675 19.8883C253.609 18.7721 253.274 18.2144 252.54 18.0505C252.172 17.9516 251.738 17.9186 251.505 17.9186C251.371 17.9186 251.237 17.8536 251.237 17.7218C251.237 17.5249 251.404 17.4598 251.772 17.4598C252.873 17.4598 254.978 17.5579 255.145 17.5579C255.312 17.5579 257.416 17.4598 258.418 17.4598C258.786 17.4598 258.953 17.5249 258.953 17.7218C258.953 17.8536 258.819 17.9186 258.685 17.9186C258.452 17.9186 258.251 17.9516 257.85 18.0175C256.949 18.1815 256.681 18.74 256.615 19.8883C256.548 20.9386 256.548 21.858 256.548 26.9777V32.7549C256.548 35.9058 256.548 38.4991 256.715 39.8773C256.815 40.8287 257.015 41.5512 258.017 41.6821C258.485 41.7481 259.187 41.814 259.387 41.814C259.687 41.814 259.788 41.912 259.788 42.0108C259.788 42.1747 259.654 42.2736 259.286 42.2736C257.449 42.2736 255.312 42.1747 255.145 42.1747C254.978 42.1747 252.873 42.2736 251.872 42.2736C251.505 42.2736 251.338 42.2077 251.338 42.0108C251.338 41.912 251.404 41.814 251.705 41.814C251.906 41.814 252.272 41.781 252.573 41.7151C253.241 41.5841 253.441 40.8287 253.575 39.8773C253.742 38.4991 253.742 35.9058 253.742 32.7549V26.9777Z" fill="#FFB300"/>
<path d="M27.0208 54.1011C33.8577 54.1011 36.5162 53.3164 37.7319 50.5304C38.4921 48.9636 38.6441 47.7442 38.8715 46.44C39.0234 45.7427 39.1753 45.2206 39.4793 45.2206C39.9356 45.2206 40.011 45.6553 40.011 46.5253C40.011 48.9636 39.0992 53.7512 38.6441 55.5805C38.1116 57.584 38.0359 57.6693 36.3642 57.6693C25.1976 57.6693 14.41 57.3219 2.48274 57.3219C1.64712 57.3219 1.26782 57.2346 1.26782 56.7124C1.26782 56.2772 1.4198 55.9279 2.1796 54.6231C12.1309 37.8196 21.8548 21.8001 31.0473 4.90925H17.145C13.0431 4.90925 9.3962 4.90925 7.0417 5.86617C4.68607 6.82542 4.07817 10.3063 3.69887 12.3976C3.47107 13.5296 3.24254 13.7897 2.93867 13.7897C2.63472 13.7897 2.55929 13.3545 2.55929 12.7451C2.55929 11.7877 3.54649 4.82149 3.85085 2.55788C4.00283 1.42591 4.1548 1.07849 4.61065 1.07849C5.2943 1.07849 5.67367 1.51328 7.6488 1.60063C14.8659 1.86303 18.2079 1.86303 19.1198 1.86303H37.6557C38.6441 1.86303 39.1753 1.86303 39.1753 2.38517C39.1753 2.7326 39.0234 3.16738 38.6441 3.77728C28.6162 21.1034 19.4995 37.2097 9.3962 54.1011H27.0208Z" fill="#FFB300"/>
<path d="M70.4827 22.4099C70.4827 10.8284 70.4827 9.43668 70.3308 7.0854C70.2549 4.21189 69.3432 3.42976 67.7477 2.99498C66.9879 2.81986 66.6847 2.81986 66.0769 2.7325C65.6206 2.7325 64.9373 2.55779 64.9373 2.123C64.9373 1.86294 65.3932 1.60054 66.3042 1.60054C67.9763 1.60054 72.9138 1.86294 73.2931 1.86294C73.9775 1.86294 78.7631 1.60054 80.5859 1.60054C81.3457 1.60054 81.5735 1.77557 81.5735 2.123C81.5735 2.47043 81.2704 2.64514 80.8145 2.7325C80.434 2.81986 80.282 2.81986 79.4463 2.99498C77.5482 3.51704 76.8637 4.12461 76.7117 7.2601C76.5606 9.61139 76.5606 10.8284 76.5606 22.4099V33.2919C81.3457 32.6821 85.9805 31.028 88.0307 18.0547C89.0183 12.2228 90.0059 7.78257 91.7533 5.34394C93.1968 3.3424 95.3236 1.51318 100.186 1.51318C100.87 1.51318 101.477 1.51318 102.389 1.6879C102.921 1.77557 103.377 2.03533 103.377 2.38508C103.377 2.81986 103.073 2.90722 102.465 2.90722C98.3624 3.07992 96.4631 7.0854 94.4125 18.1421C91.6779 33.0318 82.865 35.3808 76.5606 36.1654C76.5606 46.5252 76.636 49.0512 76.788 51.6622C76.94 53.9262 77.4716 55.755 79.523 56.0151C80.434 56.2771 81.5735 56.2771 82.3333 56.3649C82.865 56.4522 83.0932 56.6246 83.0932 56.9744C83.0932 57.3218 82.865 57.5839 81.8775 57.5839C78.6111 57.5839 73.597 57.3218 73.2931 57.3218C72.7614 57.3218 68.3556 57.5839 66.4562 57.5839C65.3932 57.5839 65.2413 57.3218 65.2413 57.0597C65.2413 56.7123 65.3932 56.4522 66.0769 56.3649C66.6847 56.2771 67.5958 56.1898 68.2036 56.0151C69.5705 55.755 70.0268 53.8389 70.2549 51.4875C70.4069 48.0066 70.4827 44.8707 70.4827 36.1654C64.1771 35.2081 54.9095 33.4666 52.0991 18.1421C50.1231 7.43475 48.8316 3.07992 44.8063 2.99498C44.1218 2.90722 43.894 2.7325 43.894 2.47043C43.894 2.03533 44.2738 1.86294 44.8063 1.77557C45.1856 1.6879 46.2485 1.60054 47.3889 1.60054C51.4147 1.60054 54.5298 2.64514 56.5803 7.0854C57.7199 9.52404 58.7075 15.9658 59.3919 19.7962C61.0627 29.4611 65.5451 32.3346 70.4827 33.2919V22.4099Z" fill="#FFB300"/>
<path d="M36.3641 58.0704C30.8704 58.0704 25.5796 57.9882 19.9786 57.9004C14.3558 57.8134 8.54196 57.7226 2.48264 57.7226C1.87716 57.7226 0.863525 57.7226 0.863525 56.712C0.863525 56.1597 1.06958 55.7273 1.83019 54.4229C3.68058 51.298 5.52159 48.2029 7.35307 45.1242C15.3907 31.6108 22.9895 18.837 30.3691 5.3103H17.1449C13.0295 5.3103 9.47548 5.3103 7.19519 6.23707C5.07003 7.10271 4.46883 10.4195 4.10926 12.4007C3.92099 13.3439 3.6885 14.1907 2.93897 14.1907C2.1554 14.1907 2.1554 13.1402 2.1554 12.7446C2.1554 12.0035 2.67964 8.1234 3.21721 4.21356L3.45011 2.50418C3.56498 1.64801 3.69521 0.677368 4.61095 0.677368C4.93624 0.677368 5.19751 0.755741 5.50025 0.845826C5.92659 0.974247 6.51113 1.14897 7.66688 1.20063C12.4477 1.37382 16.3025 1.4615 19.1201 1.4615H37.6556C38.6882 1.4615 39.5802 1.4615 39.5802 2.38514C39.5802 2.83011 39.392 3.34006 38.9882 3.98798C36.175 8.84882 33.427 13.6243 30.7094 18.3473C23.7805 30.3903 17.2289 41.7768 10.1059 53.6999H27.0207C33.832 53.6999 36.2484 52.922 37.3611 50.3713C38.027 48.998 38.211 47.9122 38.4064 46.763L38.4735 46.3713C38.6262 45.671 38.8121 44.8194 39.48 44.8194C40.4155 44.8194 40.4155 45.8456 40.4155 46.5249C40.4155 48.9299 39.5313 53.6881 39.0364 55.6763C38.4723 57.8009 38.2871 58.0704 36.3641 58.0704ZM17.1449 4.50812H31.7253L31.4029 5.09957C23.9151 18.8589 16.2086 31.8153 8.04933 45.5323C6.21826 48.6102 4.37692 51.7046 2.52879 54.8264C1.78476 56.1033 1.67191 56.39 1.67191 56.712C1.67191 56.8326 1.67191 56.9204 2.48264 56.9204C8.54826 56.9204 14.3656 57.0113 19.9916 57.099C25.5891 57.186 30.8767 57.2682 36.3641 57.2682C37.7779 57.2682 37.7779 57.2682 38.2536 55.4774C38.7383 53.5299 39.6071 48.8648 39.6071 46.5249C39.6071 45.9444 39.5621 45.7289 39.5257 45.6498C39.4528 45.7767 39.3659 46.0705 39.2672 46.5241L39.2037 46.8962C39.0079 48.0501 38.8054 49.2432 38.0965 50.7042C36.8283 53.6114 34.2389 54.5021 27.0207 54.5021H8.68641L9.04841 53.8965C16.3092 41.758 22.963 30.1937 30.0075 17.9502C32.726 13.2256 35.474 8.45013 38.2939 3.57742C38.6175 3.05729 38.7719 2.67104 38.7719 2.38514C38.6708 2.26369 38.1079 2.26369 37.6556 2.26369H19.1201C16.2927 2.26369 12.4283 2.17601 7.63414 2.00209C6.37419 1.94569 5.73395 1.75374 5.26622 1.61432C4.99582 1.53282 4.81701 1.47955 4.61095 1.47955C4.52809 1.47955 4.40335 1.47955 4.25138 2.61079L4.01808 4.32169C3.62375 7.19198 2.96379 11.9957 2.96379 12.7446C2.96379 13.0368 2.98351 13.2092 3.00364 13.3094C3.0696 13.1966 3.17971 12.9311 3.3025 12.3192C3.70192 10.1155 4.35283 6.5277 6.88849 5.4944C9.31719 4.50812 12.9447 4.50812 17.1449 4.50812Z" fill="#FFB300"/>
<path d="M81.8768 57.9851C79.3656 57.9851 75.8613 57.8322 74.1782 57.7586C73.6844 57.7367 73.3627 57.7226 73.2932 57.7226C73.1113 57.7226 72.4714 57.7539 71.6335 57.7946C69.9768 57.8753 67.7084 57.9851 66.4559 57.9851C66.013 57.9851 64.8364 57.9851 64.8364 57.0598C64.8364 56.1182 65.7312 56.0046 66.0249 55.967L66.5017 55.9035C67.0433 55.8338 67.6574 55.7547 68.0905 55.6294C69.0571 55.4437 69.5892 54.1574 69.8525 51.4493C70.0029 47.9945 70.0763 44.8438 70.0779 36.5094C64.1381 35.6022 54.5702 33.8592 51.701 18.2142C49.6618 7.16226 48.3778 3.47173 44.7973 3.39576C44.4086 3.34875 43.49 3.23204 43.49 2.47052C43.49 1.88228 43.9104 1.5156 44.7405 1.38011C45.1711 1.27984 46.3205 1.19994 47.3887 1.19994C50.9822 1.19994 54.6266 1.89239 56.9476 6.91863C57.9383 9.03841 58.7834 13.9276 59.4627 17.8554C59.578 18.5229 59.6869 19.1543 59.7895 19.7269C61.4785 29.4957 66.0896 31.9203 70.0779 32.7985V22.41C70.0779 10.9248 70.0779 9.44897 69.927 7.11132C69.8572 4.46347 69.1025 3.77961 67.6404 3.38163C67.1455 3.26805 66.8526 3.23276 66.5132 3.19281C66.362 3.17484 66.2041 3.15599 66.0182 3.12936C66.0142 3.12936 66.0099 3.12936 66.0056 3.12936C65.3002 3.12936 64.5325 2.78233 64.5325 2.12278C64.5325 1.67699 64.9978 1.19994 66.3044 1.19994C67.4459 1.19994 70.0557 1.31899 71.7823 1.39808C72.5819 1.43418 73.1721 1.46153 73.2932 1.46153C73.5506 1.46153 74.3957 1.42399 75.4433 1.37771C77.1331 1.30254 79.4465 1.19994 80.5857 1.19994C80.9299 1.19994 81.9771 1.19994 81.9771 2.12278C81.9771 2.48624 81.7884 2.95472 80.89 3.12623C80.7226 3.16545 80.5896 3.18816 80.4152 3.21792C80.2221 3.25161 79.9739 3.29388 79.5294 3.3871C77.8645 3.84619 77.2605 4.27704 77.1149 7.27978C76.9645 9.6236 76.9645 10.8339 76.9645 22.41V32.833C81.5054 32.1796 85.6874 30.2916 87.6314 17.9933C88.6703 11.8562 89.6666 7.56255 91.4234 5.11131C92.85 3.13329 95.0059 1.11218 100.185 1.11218C100.869 1.11218 101.516 1.11218 102.466 1.29396C103.26 1.42552 103.78 1.85404 103.78 2.38517C103.78 3.3088 102.858 3.3088 102.464 3.3088C98.7376 3.46547 96.8737 7.08782 94.8101 18.215C92.1754 32.5603 83.9561 35.5841 76.9645 36.518C76.9657 46.1951 77.0328 48.9205 77.1911 51.6388C77.3683 54.271 78.0587 55.4249 79.5744 55.6169C80.2395 55.8033 80.9705 55.8558 81.6154 55.902C81.8926 55.9216 82.1527 55.9404 82.38 55.9662C82.6706 56.014 83.4971 56.1488 83.4971 56.9745C83.4971 57.9851 82.2774 57.9851 81.8768 57.9851ZM73.2932 56.9204C73.3655 56.9204 73.7006 56.9345 74.2133 56.9572C75.8913 57.0301 79.3834 57.1829 81.8768 57.1829C82.1211 57.1829 82.6888 57.1625 82.6888 56.9745C82.6888 56.9133 82.6888 56.8295 82.2672 56.7606C82.0702 56.7386 81.8219 56.7206 81.5571 56.7018C80.8722 56.6533 80.0966 56.5977 79.4102 56.4003C76.9953 56.0986 76.5209 53.7234 76.3847 51.6889C76.2236 48.9181 76.1561 46.1496 76.1561 36.1655V35.8113L76.5102 35.7675C83.3013 34.9223 91.429 32.1459 94.0152 18.07C96.1672 6.4666 98.2158 2.68447 102.447 2.50662C102.864 2.50662 102.955 2.46114 102.974 2.44709C102.963 2.3303 102.749 2.15406 102.322 2.08355C101.438 1.91437 100.857 1.91437 100.185 1.91437C95.3726 1.91437 93.3879 3.76629 92.0818 5.57746C90.4154 7.90251 89.4487 12.1015 88.4295 18.1218C86.3359 31.3649 81.4434 33.0742 76.6112 33.6899L76.1561 33.7479V22.41C76.1561 10.8104 76.1561 9.59857 76.3081 7.2343C76.466 3.97229 77.2396 3.18583 79.3379 2.60842C79.8215 2.50662 80.0773 2.46194 80.2766 2.42744C80.436 2.40081 80.5561 2.37971 80.7226 2.34129C80.8671 2.31386 81.1687 2.24334 81.1687 2.12278C81.1683 2.08202 81.0731 2.00213 80.5857 2.00213C79.4643 2.00213 77.1611 2.10392 75.4796 2.17836C74.4146 2.22618 73.5553 2.26372 73.2932 2.26372C73.1689 2.26372 72.5646 2.23636 71.7452 2.19954C70.0257 2.12037 67.427 2.00213 66.3044 2.00213C65.7782 2.00213 65.496 2.09534 65.3783 2.16112C65.4782 2.23324 65.7513 2.3311 66.0762 2.3311C66.313 2.36086 66.4646 2.3789 66.6091 2.39616C66.9568 2.43763 67.2848 2.47686 67.8383 2.60376C69.5723 3.07609 70.653 3.98641 70.7343 7.0753C70.8863 9.42386 70.8863 10.9021 70.8863 22.41V33.7792L70.4047 33.6853C66.0584 32.8432 60.8343 30.5102 58.993 19.8648C58.8908 19.293 58.7818 18.66 58.6658 17.9909C58.0302 14.3145 57.1599 9.2797 56.2134 7.25387C54.2007 2.89512 51.23 2.00213 47.3887 2.00213C46.2893 2.00213 45.2394 2.08748 44.8972 2.16657C44.3103 2.263 44.2988 2.39849 44.2984 2.46667C44.3 2.44388 44.4247 2.54184 44.857 2.59671C49.2008 2.68679 50.5239 7.38077 52.496 18.07C55.3178 33.4573 64.849 34.9042 70.5436 35.769L70.8863 35.8208V36.1655C70.8863 44.7732 70.8128 47.9703 70.6589 51.5048C70.4406 53.7579 69.9882 56.0837 68.2796 56.4088C67.8232 56.542 67.1763 56.6258 66.6059 56.6987L66.1346 56.7621C65.6448 56.8241 65.6448 56.9337 65.6448 57.0598C65.6357 57.0622 65.7679 57.1829 66.4559 57.1829C67.6886 57.1829 70.0392 57.0685 71.5943 56.9932C72.4513 56.9518 73.1069 56.9204 73.2932 56.9204Z" fill="#FFB300"/>
<line x1="111" y1="1.50012" x2="260" y2="1.50012" stroke="#FFB300"/>
<line x1="111" y1="57.5001" x2="260" y2="57.5001" stroke="#FFB300"/>
</svg>
