<svg id="visual" viewBox="0 0 1920 1080" width="1920" height="1080" xmlns="http://www.w3.org/2000/svg" xmlns:xlink="http://www.w3.org/1999/xlink" version="1.1"><path d="M0 690L32 697.7C64 705.3 128 720.7 192 736.3C256 752 320 768 384 750.3C448 732.7 512 681.3 576 665.8C640 650.3 704 670.7 768 693.2C832 715.7 896 740.3 960 735.7C1024 731 1088 697 1152 681.3C1216 665.7 1280 668.3 1344 675.8C1408 683.3 1472 695.7 1536 692.5C1600 689.3 1664 670.7 1728 679.3C1792 688 1856 724 1888 742L1920 760L1920 1081L1888 1081C1856 1081 1792 1081 1728 1081C1664 1081 1600 1081 1536 1081C1472 1081 1408 1081 1344 1081C1280 1081 1216 1081 1152 1081C1088 1081 1024 1081 960 1081C896 1081 832 1081 768 1081C704 1081 640 1081 576 1081C512 1081 448 1081 384 1081C320 1081 256 1081 192 1081C128 1081 64 1081 32 1081L0 1081Z" fill="#fcc83d"></path><path d="M0 761L32 755.7C64 750.3 128 739.7 192 755.8C256 772 320 815 384 816.2C448 817.3 512 776.7 576 761.2C640 745.7 704 755.3 768 761.3C832 767.3 896 769.7 960 782.5C1024 795.3 1088 818.7 1152 810C1216 801.3 1280 760.7 1344 764.3C1408 768 1472 816 1536 821C1600 826 1664 788 1728 773C1792 758 1856 766 1888 770L1920 774L1920 1081L1888 1081C1856 1081 1792 1081 1728 1081C1664 1081 1600 1081 1536 1081C1472 1081 1408 1081 1344 1081C1280 1081 1216 1081 1152 1081C1088 1081 1024 1081 960 1081C896 1081 832 1081 768 1081C704 1081 640 1081 576 1081C512 1081 448 1081 384 1081C320 1081 256 1081 192 1081C128 1081 64 1081 32 1081L0 1081Z" fill="#fcb72e"></path><path d="M0 799L32 803.3C64 807.7 128 816.3 192 821.8C256 827.3 320 829.7 384 839.3C448 849 512 866 576 866.7C640 867.3 704 851.7 768 835.7C832 819.7 896 803.3 960 802.5C1024 801.7 1088 816.3 1152 822.8C1216 829.3 1280 827.7 1344 839.5C1408 851.3 1472 876.7 1536 872.7C1600 868.7 1664 835.3 1728 829.3C1792 823.3 1856 844.7 1888 855.3L1920 866L1920 1081L1888 1081C1856 1081 1792 1081 1728 1081C1664 1081 1600 1081 1536 1081C1472 1081 1408 1081 1344 1081C1280 1081 1216 1081 1152 1081C1088 1081 1024 1081 960 1081C896 1081 832 1081 768 1081C704 1081 640 1081 576 1081C512 1081 448 1081 384 1081C320 1081 256 1081 192 1081C128 1081 64 1081 32 1081L0 1081Z" fill="#fba520"></path><path d="M0 951L32 942.2C64 933.3 128 915.7 192 903.3C256 891 320 884 384 892.7C448 901.3 512 925.7 576 927.2C640 928.7 704 907.3 768 907.7C832 908 896 930 960 933.2C1024 936.3 1088 920.7 1152 908.3C1216 896 1280 887 1344 887.8C1408 888.7 1472 899.3 1536 915C1600 930.7 1664 951.3 1728 950C1792 948.7 1856 925.3 1888 913.7L1920 902L1920 1081L1888 1081C1856 1081 1792 1081 1728 1081C1664 1081 1600 1081 1536 1081C1472 1081 1408 1081 1344 1081C1280 1081 1216 1081 1152 1081C1088 1081 1024 1081 960 1081C896 1081 832 1081 768 1081C704 1081 640 1081 576 1081C512 1081 448 1081 384 1081C320 1081 256 1081 192 1081C128 1081 64 1081 32 1081L0 1081Z" fill="#f99315"></path><path d="M0 994L32 997.8C64 1001.7 128 1009.3 192 1005.3C256 1001.3 320 985.7 384 985.2C448 984.7 512 999.3 576 1010C640 1020.7 704 1027.3 768 1016.3C832 1005.3 896 976.7 960 975.2C1024 973.7 1088 999.3 1152 1000.8C1216 1002.3 1280 979.7 1344 979C1408 978.3 1472 999.7 1536 1005.7C1600 1011.7 1664 1002.3 1728 993.2C1792 984 1856 975 1888 970.5L1920 966L1920 1081L1888 1081C1856 1081 1792 1081 1728 1081C1664 1081 1600 1081 1536 1081C1472 1081 1408 1081 1344 1081C1280 1081 1216 1081 1152 1081C1088 1081 1024 1081 960 1081C896 1081 832 1081 768 1081C704 1081 640 1081 576 1081C512 1081 448 1081 384 1081C320 1081 256 1081 192 1081C128 1081 64 1081 32 1081L0 1081Z" fill="#f7800f"></path></svg>